<svg width="24" height="24" viewBox="0 0 24 24" fill="none" xmlns="http://www.w3.org/2000/svg">
<path fill-rule="evenodd" clip-rule="evenodd" d="M24 12C24 18.627 18.627 24 12 24C5.373 24 0 18.627 0 12C0 5.373 5.373 0 12 0C18.627 0 24 5.373 24 12ZM12 5C8.134 5 5 8.134 5 12C5 15.866 8.134 19 12 19C15.866 19 19 15.866 19 12C19 8.134 15.866 5 12 5ZM15.21 15.096C15.085 15.303 14.816 15.367 14.61 15.242C12.967 14.237 10.898 14.01 8.461 14.567C8.226 14.62 7.992 14.473 7.939 14.239C7.885 14.004 8.031 13.77 8.267 13.716C10.933 13.107 13.221 13.369 15.066 14.496C15.271 14.622 15.336 14.891 15.21 15.096V15.096ZM16.067 13.19C15.909 13.447 15.573 13.528 15.316 13.37C13.435 12.214 10.566 11.879 8.341 12.554C8.052 12.642 7.747 12.479 7.66 12.191C7.573 11.902 7.736 11.598 8.024 11.51C10.566 10.739 13.727 11.112 15.887 12.44C16.144 12.598 16.225 12.934 16.067 13.19V13.19ZM16.141 11.206C13.884 9.866 10.162 9.742 8.008 10.396C7.663 10.501 7.297 10.306 7.192 9.96C7.087 9.614 7.282 9.248 7.628 9.143C10.101 8.393 14.211 8.538 16.809 10.08C17.12 10.264 17.222 10.666 17.038 10.977C16.853 11.288 16.451 11.39 16.141 11.206V11.206Z" fill="white"/>
</svg>
