<svg width="409" height="478" viewBox="0 0 409 478" fill="none" xmlns="http://www.w3.org/2000/svg">
<path d="M327.437 62.3445C341.928 62.3445 353.675 50.5975 353.675 36.1067C353.675 21.6159 341.928 9.86884 327.437 9.86884C312.946 9.86884 301.199 21.6159 301.199 36.1067C301.199 50.5975 312.946 62.3445 327.437 62.3445Z" fill="#FFB6B6"/>
<path d="M296.021 31.5166C298.85 32.3948 301.577 32.9125 303.417 30.5922C305.256 28.2719 304.776 25.6188 307.512 24.5002C309.8 23.7329 312.293 23.8483 314.501 24.8238C314.898 24.9717 315.286 25.1381 315.665 25.3045C315.878 25.1196 316.091 24.944 316.322 24.7775C318.061 23.5407 320.208 23.018 322.321 23.317C320.777 24.063 319.506 25.2757 318.688 26.7836C319.446 27.1626 320.213 27.5416 320.99 27.8651C324.253 29.2 327.783 29.7563 331.298 29.49C334.814 29.2236 338.219 28.1419 341.244 26.3306C338.212 34.3176 340.569 37.1648 345.016 44.4585L345.191 44.8837C344.748 42.9702 350.562 40.7608 350.562 43.5341C350.307 46.3754 349.685 49.1718 348.713 51.8539C354.417 43.266 357.782 33.2175 355.573 23.5758C355.101 21.5513 354.889 19.3789 353.604 17.7334C352.319 16.0972 349.952 15.1358 348.085 16.0602C347.853 12.9251 346.777 9.91122 344.969 7.3391C343.162 4.76697 340.691 2.73272 337.82 1.45261C334.949 0.172489 331.784 -0.305638 328.663 0.0690452C325.541 0.443729 322.58 1.65721 320.093 3.5805C317.782 5.36462 315.961 7.70345 313.9 9.7834C311.838 11.8634 309.398 13.7584 306.513 14.2761C304.683 14.5997 302.622 14.4055 301.161 15.5611C299.469 16.9015 299.451 19.2588 299.46 21.5236C301.115 21.4764 302.747 21.9238 304.147 22.8085C302.434 22.8516 300.777 23.4339 299.414 24.4725C299.388 24.4887 299.363 24.5073 299.34 24.528C298.841 28.3366 299.044 29.1409 296.021 31.5166Z" fill="#2F2E41"/>
<path d="M44.4752 44.7197C40.946 31.8526 69.4108 20.8188 76.8856 31.1807C77.925 29.7076 81.7662 28.8127 83.5286 29.2647C85.2537 29.8375 86.8481 30.7468 88.2194 31.9399C90.2078 33.4674 92.2684 35.049 93.4885 37.2453C94.7177 39.4325 94.9075 42.415 93.2536 44.313C91.943 45.8224 88.0747 46.7985 86.1045 47.1962C84.7307 47.4763 83.5738 47.7023 82.5796 47.865C81.6766 46.5639 81.2606 44.9864 81.4047 43.4092C80.7355 43.8606 80.1745 44.4545 79.762 45.1483C79.3495 45.8421 79.0956 46.6186 79.0186 47.4221C78.9915 47.7565 90.1264 88.726 90.1264 88.726C88.7885 89.4874 87.3813 90.1199 85.9237 90.6149C83.0401 86.208 80.8315 81.3947 79.3711 76.3348C79.0354 79.7182 79.0778 83.1286 79.4976 86.5026C79.7209 88.3946 80.0406 90.2739 80.4556 92.1333C67.2239 94.9893 47.3222 94.0494 38.6637 81.9023L38.6594 81.7514C38.6526 81.2719 38.4794 80.8097 38.1693 80.4439C37.8593 80.0781 37.4317 79.8315 36.9598 79.7463C36.4879 79.6611 36.001 79.7426 35.5826 79.9769C35.1642 80.2112 34.8403 80.5837 34.6663 81.0306C34.4563 81.5665 34.2629 82.0304 34.0904 82.3994C31.5689 73.3793 34.8316 62.9404 44.4752 44.7197Z" fill="#2F2E41"/>
<path d="M106.875 456.283L116.734 456.2L121.098 417.287L106.548 417.41L106.875 456.283Z" fill="#FFB6B6"/>
<path d="M136.522 468.351L120.776 457.671L120.717 450.616L117.331 450.843L106.835 451.567L104.262 451.738L102.395 476.672L109.791 476.605L111.051 469.614L114.482 476.57L134.084 476.406C135.023 476.398 135.936 476.09 136.688 475.527C137.44 474.964 137.992 474.175 138.265 473.275C138.537 472.376 138.515 471.413 138.201 470.528C137.888 469.642 137.299 468.879 136.522 468.351L136.522 468.351Z" fill="#2F2E41"/>
<path d="M8.571 452.439L18.318 453.92L28.798 416.192L14.412 414.006L8.571 452.439Z" fill="#FFB6B6"/>
<path d="M35.9293 469.056L22.0764 456.014L23.1365 449.039L19.7574 448.726L9.27985 447.776L6.7121 447.537L0.91394 471.86L8.22693 472.966L10.58 466.264L12.8649 473.675L32.2441 476.622C33.1731 476.763 34.1229 476.604 34.9548 476.167C35.7867 475.73 36.4573 475.039 36.8687 474.194C37.2802 473.349 37.4109 472.395 37.2419 471.471C37.0729 470.547 36.613 469.7 35.9292 469.056L35.9293 469.056Z" fill="#2F2E41"/>
<path d="M102.341 184.421L130.294 234.485C130.294 234.485 129.127 337.45 132.842 341.269C136.557 345.088 139.92 348.513 136.557 348.482C133.193 348.451 129.122 356.635 129.122 356.635L122.165 433.999H104.622C104.622 433.999 92.2785 388.377 94.9095 362.36L74.1274 267.283C74.1274 267.283 59.197 357.196 56.5062 359.887C53.8154 362.578 52.1923 362.558 55.0219 365.259C57.8516 367.959 55.0219 374.066 55.0219 374.066L25.5244 435.287L9.52435 433.269C9.52435 433.269 12.2982 383.291 21.9574 361.835V260.44C21.2298 269.133 55.2606 181.144 34.4503 187.748C41.0342 185.659 102.341 184.421 102.341 184.421Z" fill="#2F2E41"/>
<path d="M24.987 270.813C26.1288 269.452 26.6942 267.699 26.563 265.927C26.4318 264.155 25.6144 262.504 24.2846 261.325C24.0105 261.09 23.7174 260.878 23.4083 260.691L28.1595 237.374L17.1759 230.8L14.121 263.446C13.4451 264.787 13.2323 266.315 13.5159 267.79C13.7996 269.265 14.5636 270.605 15.6887 271.601C16.9928 272.732 18.6928 273.299 20.415 273.177C22.1371 273.055 23.7403 272.254 24.8717 270.95C24.9108 270.905 24.9492 270.859 24.987 270.813Z" fill="#FFB6B6"/>
<path d="M195.902 219.762C194.142 219.512 192.55 218.585 191.464 217.178C190.378 215.772 189.884 213.998 190.086 212.232C190.133 211.874 190.209 211.521 190.314 211.175L171.202 196.998L174.983 184.769L199.065 207.02C200.464 207.567 201.643 208.562 202.418 209.849C203.192 211.136 203.519 212.644 203.347 214.136C203.24 214.984 202.968 215.803 202.545 216.546C202.123 217.289 201.558 217.942 200.883 218.467C200.208 218.991 199.436 219.378 198.612 219.604C197.788 219.831 196.927 219.893 196.079 219.787C196.019 219.779 195.96 219.771 195.902 219.762Z" fill="#FFB6B6"/>
<path d="M66.5936 82.5046C79.3973 82.5046 89.7767 72.1252 89.7767 59.3215C89.7767 46.5179 79.3973 36.1385 66.5936 36.1385C53.79 36.1385 43.4106 46.5179 43.4106 59.3215C43.4106 72.1252 53.79 82.5046 66.5936 82.5046Z" fill="#FFB6B6"/>
<path d="M402.533 453.271L394.415 458.549L370.193 429.75L382.174 421.96L402.533 453.271Z" fill="#FFB6B6"/>
<path d="M408.326 461.554L383.363 477.785L383.158 477.47C381.482 474.893 380.899 471.756 381.536 468.749C382.173 465.742 383.979 463.111 386.556 461.436L386.556 461.435L388.866 455.011L399.623 452.939L401.802 451.522L408.326 461.554Z" fill="#2F2E41"/>
<path d="M263.417 467.102L253.734 467.101L249.128 429.753L263.419 429.754L263.417 467.102Z" fill="#FFB6B6"/>
<path d="M263.758 477.203L233.982 477.202V476.825C233.982 473.752 235.203 470.804 237.377 468.631C239.55 466.457 242.498 465.236 245.572 465.236H245.572L251.011 461.11L261.159 465.237L263.758 465.237L263.758 477.203Z" fill="#2F2E41"/>
<path d="M363.643 236.64L276.813 238.549L268.207 249.307C268.207 249.307 268.951 245.514 268.289 249.68C267.626 253.847 250.875 336.911 254.041 339.697C257.208 342.482 248.037 361.717 247.364 362.89C246.69 364.063 239.431 421.96 247.364 426.721L250.344 446.93H264.21C264.21 446.93 278.101 430.854 275.306 427.94C272.51 425.026 280.505 415.336 280.811 410.14C281.117 404.944 284.036 381.377 281.774 377.598C279.512 373.819 276.455 359.638 282.193 354.14C287.93 348.642 314.691 281.083 314.691 281.083C314.691 281.083 322.467 360.286 322.449 366.505C322.425 374.592 327.736 370.59 327.736 377.69C327.736 379.124 345.03 415.992 356.652 427.517L380.687 446.005L391.781 437.685V425.668C391.781 425.668 381.5 403.37 377.914 399.784C374.328 396.198 361.087 385.221 361.087 380.2C361.087 375.18 354.853 373.43 359.046 366.774C363.238 360.118 361.804 357.249 360.37 354.38C358.935 351.511 361.655 233.965 361.655 233.965L363.643 236.64Z" fill="#2F2E41"/>
<path d="M348.398 246.668L355.784 224.435L369.073 226.882L360.428 250.111C360.954 251.471 361.089 252.952 360.819 254.386C360.55 255.82 359.885 257.15 358.901 258.227C357.917 259.304 356.652 260.085 355.248 260.482C353.844 260.879 352.357 260.877 350.955 260.476C349.552 260.074 348.289 259.29 347.308 258.21C346.327 257.13 345.666 255.798 345.401 254.364C345.135 252.929 345.275 251.449 345.804 250.089C346.334 248.73 347.232 247.545 348.398 246.668H348.398Z" fill="#FFB6B6"/>
<path d="M195.224 203.702L213.32 188.824L223.262 197.975L203.57 213.025C203.289 214.457 202.615 215.782 201.623 216.852C200.631 217.921 199.36 218.693 197.953 219.079C196.546 219.466 195.059 219.453 193.66 219.041C192.26 218.63 191.003 217.835 190.03 216.748C189.057 215.661 188.406 214.325 188.152 212.888C187.897 211.452 188.047 209.972 188.587 208.617C189.127 207.261 190.034 206.083 191.206 205.215C192.379 204.347 193.77 203.823 195.224 203.702V203.702Z" fill="#FFB6B6"/>
<path d="M12.9362 248.545L27.0014 249.243L34.8072 216.5C52.7532 212.465 57.0099 201.43 63.4618 203.33C92.0835 211.755 126.099 210.862 114.524 199.287C109.778 194.541 107.415 178.787 106.276 161.851H18.9104L12.9362 248.545Z" fill="#FED701"/>
<path d="M117.537 161.851L179.993 205.057L189.992 195.141L155.689 161.851H117.537Z" fill="#FED701"/>
<path d="M127.529 134.522L105.524 111.046C105.531 110.8 105.536 110.66 105.536 110.66L104.865 110.343L98.4641 103.515C96.6427 101.558 94.4452 99.9899 92.0034 98.9029C89.5615 97.8159 86.9254 97.2329 84.2528 97.1886C83.4939 97.1769 82.7349 97.2076 81.9794 97.2805L78.5822 88.9582L50.1664 82.9305L44.5243 94.2873L33.5074 100.665C30.9587 101.518 28.6091 102.879 26.6004 104.664L25.5243 105.287L25.6041 105.614C22.0003 109.237 19.9334 114.11 19.8338 119.219L18.9201 161.709L18.9103 161.851H106.276C106.124 159.59 105.993 157.31 105.882 155.03C109.834 157.055 113.671 159.294 117.377 161.74L117.537 161.851H155.689L127.529 134.522Z" fill="#015ABB"/>
<path d="M213.987 181.885C216.258 186.373 213.067 183.345 209.499 184.156C205.93 184.967 207.66 187.076 207.741 190.185C207.822 193.295 195.547 199.837 195.547 199.837C203.036 202.514 212.418 213.518 212.418 213.518C212.418 213.518 221.502 203.947 223.151 202.947C224.801 201.947 225.72 200.487 230.938 198.676C236.156 196.864 233.966 195.485 234.345 191.646C234.724 187.807 235.994 190.646 243.321 187.104C250.648 183.563 244.7 184.914 246.728 180.075C248.756 175.235 248.107 177.885 254.704 173.884C258.669 171.479 262.608 167.947 268.088 161.851H226.275C218.564 172.504 213.312 180.552 213.987 181.885Z" fill="#FED701"/>
<path d="M390.607 151.786C392.072 139.575 390.218 126.535 388.335 117.519C387.724 114.592 386.515 111.823 384.784 109.385C383.054 106.947 380.838 104.893 378.277 103.351C378.085 102.372 377.746 101.745 377.224 101.56C369.767 98.9089 348.947 86.6609 348.947 86.6609L347.202 72.6553L309.529 70.8452L299.888 86.6609C299.888 86.6609 274.917 89.171 275.38 98.3125C269.332 105.856 242.411 139.561 226.275 161.851H268.088C271.725 157.805 276.041 152.632 281.499 145.901C281.536 145.856 281.571 145.808 281.607 145.762C281.974 151.218 282.257 156.676 282.425 161.851H389.339C389.745 158.816 390.163 155.482 390.607 151.786Z" fill="#015ABB"/>
<path d="M389.339 161.851H282.425C282.902 176.554 282.446 188.952 280.306 192.366C277.302 197.158 272.217 213.195 268.084 227.276C267.284 230.006 267.143 232.888 267.672 235.684C268.201 238.48 269.386 241.11 271.129 243.359C272.872 245.608 275.123 247.412 277.699 248.623C280.274 249.833 283.099 250.415 285.943 250.322C311.585 249.477 349.108 247.52 356.42 243.229C360.398 243.798 364.328 244.661 368.178 245.813C368.178 245.813 370.766 232.874 371.628 231.148C372.491 229.423 372.491 227.698 375.942 223.385C379.392 219.072 376.804 219.072 375.079 215.621C373.354 212.171 375.942 213.896 380.255 206.995C384.568 200.094 380.255 204.407 379.392 199.231C378.53 194.055 379.392 196.643 382.843 189.742C385.702 184.024 387.377 176.521 389.339 161.851Z" fill="#FED701"/>
<path d="M31.822 46.5273C28.2927 33.6602 56.7575 22.6264 64.2324 32.9883C65.2718 31.5152 69.1129 30.6204 70.8754 31.0723C72.6005 31.6451 74.1948 32.5544 75.5661 33.7476C77.5545 35.275 79.6151 36.8566 80.8353 39.0529C82.0645 41.2401 82.2543 44.2227 80.6003 46.1206C79.2897 47.63 75.4214 48.6061 73.4511 49.0038C72.0774 49.284 70.9205 49.5099 69.9263 49.6726C69.0233 48.3715 68.6073 46.794 68.7513 45.2169C68.0822 45.6682 67.5212 46.2621 67.1087 46.9559C66.6962 47.6497 66.4423 48.4262 66.3654 49.2297C66.3382 49.5641 77.4731 90.5336 77.4731 90.5336C76.1352 91.295 74.728 91.9275 73.2704 92.4225C70.3868 88.0156 68.1782 83.2024 66.7178 78.1424C66.3821 81.5259 66.4246 84.9362 66.8443 88.3102C67.0676 90.2022 67.3873 92.0816 67.8023 93.9409C54.5706 96.797 34.6689 95.857 26.0104 83.7099L26.0061 83.5591C25.9993 83.0796 25.8261 82.6173 25.5161 82.2515C25.206 81.8857 24.7784 81.6391 24.3065 81.5539C23.8346 81.4687 23.3477 81.5502 22.9293 81.7845C22.5109 82.0188 22.187 82.3913 22.0131 82.8382C21.803 83.3741 21.6097 83.838 21.4371 84.207C18.9157 75.187 22.1784 64.748 31.822 46.5273Z" fill="#2F2E41"/>
<path d="M195.941 120.117C195.907 120.15 195.876 120.184 195.843 120.218C193.337 117.731 189.956 116.328 186.427 116.309C182.897 116.289 179.501 117.656 176.969 120.115V120.115C174.428 122.583 172.962 125.952 172.887 129.493C172.812 133.034 174.134 136.462 176.568 139.036L176.565 139.039L176.691 139.169L195.34 158.371L214.672 139.595L214.618 139.54C214.651 139.509 214.684 139.48 214.717 139.449C217.28 136.959 218.75 133.553 218.802 129.98C218.854 126.406 217.484 122.959 214.995 120.395V120.395C212.505 117.832 209.099 116.362 205.525 116.31C201.952 116.258 198.505 117.627 195.941 120.117V120.117Z" fill="#F50404"/>
</svg>
