<svg width="418" height="385" viewBox="0 0 418 385" fill="none" xmlns="http://www.w3.org/2000/svg">
<path d="M229 64L271 34.5L318.5 28L365 51L392.5 104.5L377.5 189L324.5 263L273.5 311L206.5 356.5V258V161V104.5L229 64Z" fill="#FED701"/>
<path d="M305.92 0C257.83 0 225.92 29.54 209 51C192.12 29.51 160.17 0 112.08 0C51.46 0 1.62998 50.54 0.999985 112.65C0.459985 166.86 19.63 216.92 59.61 265.65C78.38 288.53 112.41 325.11 191 378.46C196.3 382.092 202.575 384.036 209 384.036C215.425 384.036 221.7 382.092 227 378.46C305.59 325.11 339.62 288.53 358.39 265.65C398.39 216.91 417.54 166.85 417 112.65C416.37 50.54 366.54 0 305.92 0ZM209 352V143.58C209 123.95 214.23 104.82 223.21 87.36C223.233 87.3047 223.259 87.2512 223.29 87.2C229.114 76.6839 236.449 67.0784 245.06 58.69C263.19 41 283.66 32 305.92 32C349.07 32 384.54 68.32 384.99 113C386 217.61 296.63 292.51 209 352Z" fill="#015ABB"/>
</svg>
